<svg width="10685" height="5418" viewBox="0 0 10685 5418" fill="none" xmlns="http://www.w3.org/2000/svg">
<path d="M3448.89 778.302L3757.61 1564.47L4067.23 764.84L4379.54 1560.88L4681.09 778.302H4880.32L4401.98 2013.19H4266.47L4016.98 1378.69L3771.97 2013.19H3636.46L3148.25 778.302H3448.89ZM5035.58 1159.72L5231.22 1057.41H5314.68V1995.24H5035.58V1159.72ZM5023.91 755.865C5023.91 737.318 5027.8 719.668 5035.58 702.916C5043.36 686.164 5054.13 671.805 5067.89 659.839C5081.65 647.873 5097.5 638.3 5115.45 631.12C5133.4 623.941 5152.84 620.351 5173.78 620.351C5194.73 620.351 5214.17 623.941 5232.12 631.12C5250.67 638.3 5266.52 647.873 5279.68 659.839C5293.44 671.805 5304.21 686.164 5311.99 702.916C5319.77 719.668 5323.66 737.318 5323.66 755.865C5323.66 774.413 5319.77 792.062 5311.99 808.815C5304.21 824.969 5293.44 839.029 5279.68 850.995C5266.52 862.961 5250.67 872.534 5232.12 879.713C5214.17 886.893 5194.73 890.483 5173.78 890.483C5152.84 890.483 5133.4 886.893 5115.45 879.713C5097.5 872.534 5081.65 862.961 5067.89 850.995C5054.13 839.029 5043.36 824.969 5035.58 808.815C5027.8 792.062 5023.91 774.413 5023.91 755.865ZM5676.36 1738.57C5692.51 1788.83 5715.54 1828.02 5745.46 1856.14C5775.97 1883.66 5813.96 1897.42 5859.43 1897.42C5878.58 1897.42 5895.93 1895.03 5911.49 1890.24C5927.64 1885.45 5941.4 1878.87 5952.77 1870.5C5964.74 1861.52 5973.71 1851.35 5979.69 1839.98C5986.27 1828.61 5989.56 1816.35 5989.56 1803.19C5989.56 1781.65 5985.38 1762.5 5977 1745.75C5969.22 1728.4 5958.15 1712.84 5943.79 1699.08C5929.44 1685.32 5912.38 1672.76 5892.64 1661.39C5872.9 1649.42 5851.66 1638.36 5828.92 1628.18C5792.43 1612.03 5756.23 1594.68 5720.33 1576.13C5684.43 1556.99 5652.12 1535.45 5623.41 1511.52C5594.69 1486.99 5571.35 1459.17 5553.41 1428.05C5536.05 1396.94 5527.38 1361.04 5527.38 1320.36C5527.38 1281.47 5535.46 1246.17 5551.61 1214.46C5567.76 1182.15 5590.5 1154.63 5619.82 1131.9C5649.13 1109.16 5684.13 1091.51 5724.82 1078.95C5765.5 1066.38 5810.37 1060.1 5859.43 1060.1C5904.31 1060.1 5944.09 1064.29 5978.8 1072.66C6013.5 1081.04 6044.01 1093.01 6070.33 1108.56C6096.66 1124.12 6119.99 1143.26 6140.34 1166C6160.68 1188.14 6178.93 1213.26 6195.08 1241.38L6033.54 1297.03C6025.16 1267.71 6014.99 1244.97 6003.03 1228.82C5991.06 1212.67 5978.5 1200.7 5965.33 1192.92C5952.17 1184.55 5939.31 1179.46 5926.74 1177.67C5914.18 1175.87 5903.11 1174.97 5893.54 1174.97C5876.19 1174.97 5859.73 1177.07 5844.18 1181.26C5828.62 1184.85 5814.86 1190.23 5802.9 1197.41C5790.93 1204.59 5781.36 1213.56 5774.18 1224.33C5767 1234.5 5763.41 1246.47 5763.41 1260.23C5763.41 1277.58 5767.9 1294.03 5776.87 1309.59C5785.84 1325.15 5798.41 1339.8 5814.56 1353.57C5830.72 1366.73 5849.56 1379.29 5871.1 1391.26C5893.24 1403.22 5917.17 1414.59 5942.9 1425.36C5981.79 1441.52 6019.48 1459.46 6055.98 1479.21C6093.07 1498.95 6125.98 1521.39 6154.69 1546.52C6183.41 1571.05 6206.45 1598.57 6223.8 1629.08C6241.15 1659 6249.82 1692.5 6249.82 1729.6C6249.82 1769.68 6243.24 1807.08 6230.08 1841.78C6216.92 1876.48 6195.38 1906.69 6165.46 1932.42C6136.15 1958.15 6097.86 1978.49 6050.59 1993.45C6003.92 2008.4 5947.09 2015.88 5880.08 2015.88C5822.64 2015.88 5773.88 2009.3 5733.79 1996.14C5694.3 1982.98 5660.8 1966.22 5633.28 1945.88C5605.76 1924.94 5583.02 1901.61 5565.07 1875.88C5547.12 1850.15 5531.27 1824.73 5517.51 1799.6L5676.36 1738.57ZM7016.24 1367.92C7016.24 1320.66 7008.47 1284.76 6992.91 1260.23C6977.95 1235.1 6958.21 1222.54 6933.68 1222.54C6922.91 1222.54 6909.15 1224.93 6892.4 1229.72C6876.24 1234.5 6858.89 1241.38 6840.34 1250.36C6821.8 1259.33 6802.95 1269.8 6783.81 1281.77C6765.26 1293.74 6747.91 1306.9 6731.75 1321.26V1995.24H6449.96V710.096L6648.29 607.787H6731.75V1150.74C6774.23 1119.63 6821.5 1096.6 6873.55 1081.64C6926.2 1066.08 6977.65 1058.31 7027.91 1058.31C7065.01 1058.31 7099.71 1065.78 7132.02 1080.74C7164.92 1095.1 7193.34 1115.14 7217.27 1140.87C7241.8 1166 7260.95 1195.61 7274.71 1229.72C7289.07 1263.82 7296.25 1300.02 7296.25 1338.31V1995.24H7016.24V1367.92ZM2638.5 3302.3H2929.27L3350.17 4133.34L3764.79 3302.3H4049.28V4519.24H3751.33V3725.9L3353.76 4519.24H3238.89L2827.86 3716.92V4519.24H2638.5V3302.3ZM4763.65 4045.39C4736.73 4056.76 4709.51 4070.52 4681.98 4086.67C4654.46 4102.82 4629.63 4121.07 4607.5 4141.41C4585.96 4161.16 4568.01 4183.3 4553.65 4207.83C4539.89 4231.76 4533.01 4257.48 4533.01 4285.01C4533.01 4315.52 4540.79 4339.45 4556.34 4356.8C4572.49 4374.15 4594.03 4382.83 4620.96 4382.83C4643.69 4382.83 4666.13 4376.25 4688.27 4363.08C4710.4 4349.32 4735.53 4331.67 4763.65 4310.14V4045.39ZM4253.9 3833.59C4263.47 3795.3 4280.23 3760.6 4304.16 3729.49C4328.09 3697.78 4357.71 3671.15 4393.01 3649.61C4428.9 3627.48 4469.59 3610.43 4515.06 3598.46C4561.13 3586.49 4610.79 3580.51 4664.03 3580.51C4729.85 3580.51 4786.69 3586.49 4834.55 3598.46C4882.41 3610.43 4921.6 3627.48 4952.12 3649.61C4983.23 3671.15 5005.96 3697.48 5020.32 3728.59C5035.28 3759.1 5042.76 3793.5 5042.76 3831.8V4357.7C5042.76 4395.39 5054.42 4427.4 5077.76 4453.73C5101.09 4480.05 5134 4501.89 5176.48 4519.24H4846.22C4836.64 4519.24 4827.37 4516.55 4818.4 4511.16C4809.42 4505.78 4801.34 4498.9 4794.16 4490.52C4786.98 4481.55 4780.7 4471.97 4775.32 4461.8C4769.93 4451.63 4766.04 4441.76 4763.65 4432.19C4746.9 4447.74 4731.04 4462.1 4716.09 4475.27C4701.13 4487.83 4684.68 4498.6 4666.73 4507.57C4648.78 4516.55 4628.73 4523.43 4606.6 4528.21C4584.46 4533.6 4557.84 4536.29 4526.73 4536.29C4484.25 4536.29 4445.95 4530.31 4411.85 4518.34C4378.35 4506.38 4349.63 4489.92 4325.7 4468.98C4302.36 4447.44 4284.41 4422.32 4271.85 4393.6C4259.29 4364.28 4253 4332.57 4253 4298.47C4253 4245.82 4267.66 4200.65 4296.98 4162.95C4326.3 4125.26 4364.89 4092.35 4412.75 4064.23C4461.21 4036.11 4515.96 4011.58 4576.98 3990.64C4638.01 3969.7 4700.23 3949.66 4763.65 3930.51V3840.77C4763.65 3811.45 4760.66 3786.62 4754.68 3766.28C4748.69 3745.34 4740.32 3728.59 4729.55 3716.02C4718.78 3702.86 4705.62 3693.59 4690.06 3688.2C4675.1 3682.22 4658.35 3679.23 4639.8 3679.23C4617.67 3679.23 4597.92 3683.42 4580.57 3691.79C4563.22 3700.17 4548.26 3711.54 4535.7 3725.9C4523.14 3740.26 4512.96 3756.71 4505.19 3775.26C4497.41 3793.8 4491.72 3813.25 4488.13 3833.59H4253.9ZM5581.23 3915.26L5942 3600.25H6143.03L5740.97 3952.05L6229.18 4519.24H5899.82L5581.23 4150.39V4519.24H5301.22V3234.1L5497.76 3131.79H5581.23V3915.26ZM6727.27 4539.88C6662.05 4539.88 6600.73 4527.92 6543.29 4503.98C6485.85 4479.45 6435.89 4446.85 6393.42 4406.16C6350.94 4364.88 6317.13 4317.31 6292 4263.47C6267.47 4209.02 6255.21 4151.59 6255.21 4091.16C6255.21 4018.76 6266.58 3951.75 6289.31 3890.13C6312.05 3827.91 6344.36 3774.06 6386.24 3728.59C6428.12 3683.12 6478.07 3647.82 6536.11 3622.69C6594.74 3596.96 6659.96 3584.1 6731.75 3584.1C6795.77 3584.1 6854.4 3594.27 6907.65 3614.61C6960.9 3634.96 7006.37 3662.78 7044.07 3698.08C7082.36 3733.38 7111.97 3774.96 7132.91 3822.82C7153.85 3870.68 7164.32 3921.84 7164.32 3976.28H6528.03C6530.43 4027.14 6537.9 4075.6 6550.47 4121.67C6563.63 4167.74 6580.98 4208.42 6602.52 4243.72C6624.06 4278.43 6649.19 4306.25 6677.91 4327.19C6707.22 4347.53 6739.53 4357.7 6774.83 4357.7C6805.34 4357.7 6835.26 4352.61 6864.58 4342.44C6894.49 4331.67 6922.01 4317.31 6947.14 4299.37C6972.27 4280.82 6994.11 4259.58 7012.65 4235.65C7031.2 4211.12 7044.66 4184.79 7053.04 4156.67L7194.84 4179.11C7180.48 4228.77 7157.44 4275.43 7125.73 4319.11C7094.62 4362.79 7057.83 4401.08 7015.35 4433.98C6973.47 4466.89 6927.7 4492.92 6878.04 4512.06C6828.38 4530.61 6778.12 4539.88 6727.27 4539.88ZM6844.83 3881.16C6842.44 3854.23 6836.46 3829.7 6826.88 3807.56C6817.91 3784.83 6806.24 3765.38 6791.88 3749.23C6777.52 3733.08 6760.77 3720.81 6741.63 3712.44C6722.48 3703.46 6701.84 3698.97 6679.7 3698.97C6662.35 3698.97 6645.3 3703.46 6628.55 3712.44C6611.79 3720.81 6596.54 3733.08 6582.78 3749.23C6569.61 3764.79 6558.25 3783.93 6548.67 3806.67C6539.7 3828.8 6533.72 3853.63 6530.73 3881.16H6844.83ZM8002.54 3793.21C7989.97 3782.44 7978.31 3773.16 7967.54 3765.38C7957.37 3757.61 7947.2 3751.32 7937.02 3746.54C7926.85 3741.75 7916.08 3738.46 7904.72 3736.67C7893.95 3734.27 7881.68 3733.08 7867.92 3733.08C7848.78 3733.08 7829.93 3736.37 7811.38 3742.95C7792.84 3748.93 7775.48 3757.61 7759.33 3768.97C7743.18 3779.74 7728.52 3792.61 7715.36 3807.56C7702.79 3821.92 7692.92 3837.48 7685.74 3854.23V4519.24H7407.53V3683.72L7602.28 3581.41L7685.74 3671.15C7716.25 3639.44 7750.06 3614.02 7787.15 3594.87C7824.84 3575.72 7864.33 3566.15 7905.61 3566.15C7945.7 3566.15 7981.9 3574.53 8014.21 3591.28C8046.51 3607.43 8074.63 3625.38 8098.57 3645.13L8002.54 3793.21Z" fill="white"/>
<path d="M3448.89 778.302L3757.61 1564.47L4067.23 764.84L4379.54 1560.88L4681.09 778.302H4880.32L4401.98 2013.19H4266.47L4016.98 1378.69L3771.97 2013.19H3636.46L3148.25 778.302H3448.89ZM5035.58 1159.72L5231.22 1057.41H5314.68V1995.24H5035.58V1159.72ZM5023.91 755.865C5023.91 737.318 5027.8 719.668 5035.58 702.916C5043.36 686.164 5054.13 671.805 5067.89 659.839C5081.65 647.873 5097.5 638.3 5115.45 631.12C5133.4 623.941 5152.84 620.351 5173.78 620.351C5194.73 620.351 5214.17 623.941 5232.12 631.12C5250.67 638.3 5266.52 647.873 5279.68 659.839C5293.44 671.805 5304.21 686.164 5311.99 702.916C5319.77 719.668 5323.66 737.318 5323.66 755.865C5323.66 774.413 5319.77 792.062 5311.99 808.815C5304.21 824.969 5293.44 839.029 5279.68 850.995C5266.52 862.961 5250.67 872.534 5232.12 879.713C5214.17 886.893 5194.73 890.483 5173.78 890.483C5152.84 890.483 5133.4 886.893 5115.45 879.713C5097.5 872.534 5081.65 862.961 5067.89 850.995C5054.13 839.029 5043.36 824.969 5035.58 808.815C5027.8 792.062 5023.91 774.413 5023.91 755.865ZM5676.36 1738.57C5692.51 1788.83 5715.54 1828.02 5745.46 1856.14C5775.97 1883.66 5813.96 1897.42 5859.43 1897.42C5878.58 1897.42 5895.93 1895.03 5911.49 1890.24C5927.64 1885.45 5941.4 1878.87 5952.77 1870.5C5964.74 1861.52 5973.71 1851.35 5979.69 1839.98C5986.27 1828.61 5989.56 1816.35 5989.56 1803.19C5989.56 1781.65 5985.38 1762.5 5977 1745.75C5969.22 1728.4 5958.15 1712.84 5943.79 1699.08C5929.44 1685.32 5912.38 1672.76 5892.64 1661.39C5872.9 1649.42 5851.66 1638.36 5828.92 1628.18C5792.43 1612.03 5756.23 1594.68 5720.33 1576.13C5684.43 1556.99 5652.12 1535.45 5623.41 1511.52C5594.69 1486.99 5571.35 1459.17 5553.41 1428.05C5536.05 1396.94 5527.38 1361.04 5527.38 1320.36C5527.38 1281.47 5535.46 1246.17 5551.61 1214.46C5567.76 1182.15 5590.5 1154.63 5619.82 1131.9C5649.13 1109.16 5684.13 1091.51 5724.82 1078.95C5765.5 1066.38 5810.37 1060.1 5859.43 1060.1C5904.31 1060.1 5944.09 1064.29 5978.8 1072.66C6013.5 1081.04 6044.01 1093.01 6070.33 1108.56C6096.66 1124.12 6119.99 1143.26 6140.34 1166C6160.68 1188.14 6178.93 1213.26 6195.08 1241.38L6033.54 1297.03C6025.16 1267.71 6014.99 1244.97 6003.03 1228.82C5991.06 1212.67 5978.5 1200.7 5965.33 1192.92C5952.17 1184.55 5939.31 1179.46 5926.74 1177.67C5914.18 1175.87 5903.11 1174.97 5893.54 1174.97C5876.19 1174.97 5859.73 1177.07 5844.18 1181.26C5828.62 1184.85 5814.86 1190.23 5802.9 1197.41C5790.93 1204.59 5781.36 1213.56 5774.18 1224.33C5767 1234.5 5763.41 1246.47 5763.41 1260.23C5763.41 1277.58 5767.9 1294.03 5776.87 1309.59C5785.84 1325.15 5798.41 1339.8 5814.56 1353.57C5830.72 1366.73 5849.56 1379.29 5871.1 1391.26C5893.24 1403.22 5917.17 1414.59 5942.9 1425.36C5981.79 1441.52 6019.48 1459.46 6055.98 1479.21C6093.07 1498.95 6125.98 1521.39 6154.69 1546.52C6183.41 1571.05 6206.45 1598.57 6223.8 1629.08C6241.15 1659 6249.82 1692.5 6249.82 1729.6C6249.82 1769.68 6243.24 1807.08 6230.08 1841.78C6216.92 1876.48 6195.38 1906.69 6165.46 1932.42C6136.15 1958.15 6097.86 1978.49 6050.59 1993.45C6003.92 2008.4 5947.09 2015.88 5880.08 2015.88C5822.64 2015.88 5773.88 2009.3 5733.79 1996.14C5694.3 1982.98 5660.8 1966.22 5633.28 1945.88C5605.76 1924.94 5583.02 1901.61 5565.07 1875.88C5547.12 1850.15 5531.27 1824.73 5517.51 1799.6L5676.36 1738.57ZM7016.24 1367.92C7016.24 1320.66 7008.47 1284.76 6992.91 1260.23C6977.95 1235.1 6958.21 1222.54 6933.68 1222.54C6922.91 1222.54 6909.15 1224.93 6892.4 1229.72C6876.24 1234.5 6858.89 1241.38 6840.34 1250.36C6821.8 1259.33 6802.95 1269.8 6783.81 1281.77C6765.26 1293.74 6747.91 1306.9 6731.75 1321.26V1995.24H6449.96V710.096L6648.29 607.787H6731.75V1150.74C6774.23 1119.63 6821.5 1096.6 6873.55 1081.64C6926.2 1066.08 6977.65 1058.31 7027.91 1058.31C7065.01 1058.31 7099.71 1065.78 7132.02 1080.74C7164.92 1095.1 7193.34 1115.14 7217.27 1140.87C7241.8 1166 7260.95 1195.61 7274.71 1229.72C7289.07 1263.82 7296.25 1300.02 7296.25 1338.31V1995.24H7016.24V1367.92ZM2638.5 3302.3H2929.27L3350.17 4133.34L3764.79 3302.3H4049.28V4519.24H3751.33V3725.9L3353.76 4519.24H3238.89L2827.86 3716.92V4519.24H2638.5V3302.3ZM4763.65 4045.39C4736.73 4056.76 4709.51 4070.52 4681.98 4086.67C4654.46 4102.82 4629.63 4121.07 4607.5 4141.41C4585.96 4161.16 4568.01 4183.3 4553.65 4207.83C4539.89 4231.76 4533.01 4257.48 4533.01 4285.01C4533.01 4315.52 4540.79 4339.45 4556.34 4356.8C4572.49 4374.15 4594.03 4382.83 4620.96 4382.83C4643.69 4382.83 4666.13 4376.25 4688.27 4363.08C4710.4 4349.32 4735.53 4331.67 4763.65 4310.14V4045.39ZM4253.9 3833.59C4263.47 3795.3 4280.23 3760.6 4304.16 3729.49C4328.09 3697.78 4357.71 3671.15 4393.01 3649.61C4428.9 3627.48 4469.59 3610.43 4515.06 3598.46C4561.13 3586.49 4610.79 3580.51 4664.03 3580.51C4729.85 3580.51 4786.69 3586.49 4834.55 3598.46C4882.41 3610.43 4921.6 3627.48 4952.12 3649.61C4983.23 3671.15 5005.96 3697.48 5020.32 3728.59C5035.28 3759.1 5042.76 3793.5 5042.76 3831.8V4357.7C5042.76 4395.39 5054.42 4427.4 5077.76 4453.73C5101.09 4480.05 5134 4501.89 5176.48 4519.24H4846.22C4836.64 4519.24 4827.37 4516.55 4818.4 4511.16C4809.42 4505.78 4801.34 4498.9 4794.16 4490.52C4786.98 4481.55 4780.7 4471.97 4775.32 4461.8C4769.93 4451.63 4766.04 4441.76 4763.65 4432.19C4746.9 4447.74 4731.04 4462.1 4716.09 4475.27C4701.13 4487.83 4684.68 4498.6 4666.73 4507.57C4648.78 4516.55 4628.73 4523.43 4606.6 4528.21C4584.46 4533.6 4557.84 4536.29 4526.73 4536.29C4484.25 4536.29 4445.95 4530.31 4411.85 4518.34C4378.35 4506.38 4349.63 4489.92 4325.7 4468.98C4302.36 4447.44 4284.41 4422.32 4271.85 4393.6C4259.29 4364.28 4253 4332.57 4253 4298.47C4253 4245.82 4267.66 4200.65 4296.98 4162.95C4326.3 4125.26 4364.89 4092.35 4412.75 4064.23C4461.21 4036.11 4515.96 4011.58 4576.98 3990.64C4638.01 3969.7 4700.23 3949.66 4763.65 3930.51V3840.77C4763.65 3811.45 4760.66 3786.62 4754.68 3766.28C4748.69 3745.34 4740.32 3728.59 4729.55 3716.02C4718.78 3702.86 4705.62 3693.59 4690.06 3688.2C4675.1 3682.22 4658.35 3679.23 4639.8 3679.23C4617.67 3679.23 4597.92 3683.42 4580.57 3691.79C4563.22 3700.17 4548.26 3711.54 4535.7 3725.9C4523.14 3740.26 4512.96 3756.71 4505.19 3775.26C4497.41 3793.8 4491.72 3813.25 4488.13 3833.59H4253.9ZM5581.23 3915.26L5942 3600.25H6143.03L5740.97 3952.05L6229.18 4519.24H5899.82L5581.23 4150.39V4519.24H5301.22V3234.1L5497.76 3131.79H5581.23V3915.26ZM6727.27 4539.88C6662.05 4539.88 6600.73 4527.92 6543.29 4503.98C6485.85 4479.45 6435.89 4446.85 6393.42 4406.16C6350.94 4364.88 6317.13 4317.31 6292 4263.47C6267.47 4209.02 6255.21 4151.59 6255.21 4091.16C6255.21 4018.76 6266.58 3951.75 6289.31 3890.13C6312.05 3827.91 6344.36 3774.06 6386.24 3728.59C6428.12 3683.12 6478.07 3647.82 6536.11 3622.69C6594.74 3596.96 6659.96 3584.1 6731.75 3584.1C6795.77 3584.1 6854.4 3594.27 6907.65 3614.61C6960.9 3634.96 7006.37 3662.78 7044.07 3698.08C7082.36 3733.38 7111.97 3774.96 7132.91 3822.82C7153.85 3870.68 7164.32 3921.84 7164.32 3976.28H6528.03C6530.43 4027.14 6537.9 4075.6 6550.47 4121.67C6563.63 4167.74 6580.98 4208.42 6602.52 4243.72C6624.06 4278.43 6649.19 4306.25 6677.91 4327.19C6707.22 4347.53 6739.53 4357.7 6774.83 4357.7C6805.34 4357.7 6835.26 4352.61 6864.58 4342.44C6894.49 4331.67 6922.01 4317.31 6947.14 4299.37C6972.27 4280.82 6994.11 4259.58 7012.65 4235.65C7031.2 4211.12 7044.66 4184.79 7053.04 4156.67L7194.84 4179.11C7180.48 4228.77 7157.44 4275.43 7125.73 4319.11C7094.62 4362.79 7057.83 4401.08 7015.35 4433.98C6973.47 4466.89 6927.7 4492.92 6878.04 4512.06C6828.38 4530.61 6778.12 4539.88 6727.27 4539.88ZM6844.83 3881.16C6842.44 3854.23 6836.46 3829.7 6826.88 3807.56C6817.91 3784.83 6806.24 3765.38 6791.88 3749.23C6777.52 3733.08 6760.77 3720.81 6741.63 3712.44C6722.48 3703.46 6701.84 3698.97 6679.7 3698.97C6662.35 3698.97 6645.3 3703.46 6628.55 3712.44C6611.79 3720.81 6596.54 3733.08 6582.78 3749.23C6569.61 3764.79 6558.25 3783.93 6548.67 3806.67C6539.7 3828.8 6533.72 3853.63 6530.73 3881.16H6844.83ZM8002.54 3793.21C7989.97 3782.44 7978.31 3773.16 7967.54 3765.38C7957.37 3757.61 7947.2 3751.32 7937.02 3746.54C7926.85 3741.75 7916.08 3738.46 7904.72 3736.67C7893.95 3734.27 7881.68 3733.08 7867.92 3733.08C7848.78 3733.08 7829.93 3736.37 7811.38 3742.95C7792.84 3748.93 7775.48 3757.61 7759.33 3768.97C7743.18 3779.74 7728.52 3792.61 7715.36 3807.56C7702.79 3821.92 7692.92 3837.48 7685.74 3854.23V4519.24H7407.53V3683.72L7602.28 3581.41L7685.74 3671.15C7716.25 3639.44 7750.06 3614.02 7787.15 3594.87C7824.84 3575.72 7864.33 3566.15 7905.61 3566.15C7945.7 3566.15 7981.9 3574.53 8014.21 3591.28C8046.51 3607.43 8074.63 3625.38 8098.57 3645.13L8002.54 3793.21Z" fill="white"/>
<path d="M1810.56 3905.65C1741.62 3758.59 1699.32 3605.19 1679.72 3445.68C1656.28 3254.83 1672.89 3067.83 1739.48 2886.43C1741.81 2880.07 1746.35 2873.74 1741.63 2863.27C1711.33 2897.74 1673.41 2924.91 1674.5 2975.16C1663.29 2976.25 1665.29 2965.41 1656.65 2965.35C1642.79 2980.79 1632.33 3000.03 1620.05 3017.91C1614.82 3025.53 1620.59 3031.05 1623.79 3037.22C1640.07 3068.65 1622.58 3105.13 1589.11 3109.8C1561.39 3113.68 1537.64 3094.45 1536.03 3066.83C1534.31 3037.19 1557.87 3010.23 1586.14 3013.82C1603.66 3016.05 1611.07 3008.37 1620.83 2996.85C1653.71 2958.02 1670.15 2912.12 1682.09 2858.61C1672.86 2867.55 1666.2 2873.71 1659.87 2880.19C1607.73 2933.54 1555.83 2987.14 1503.36 3040.17C1494.37 3049.25 1494.47 3055.65 1500.89 3066.52C1525.95 3108.99 1510.4 3158.72 1466.32 3180.95C1425.73 3201.42 1376.09 3183.4 1358.25 3141.72C1338.91 3096.54 1360.76 3045.61 1406.74 3029.89C1427.86 3022.66 1448.79 3024.83 1467.94 3036.31C1478.41 3042.58 1485.87 3042.3 1494.87 3033.28C1575.36 2952.68 1649.89 2866.61 1725.33 2781.36C1725.97 2780.63 1725.85 2779.22 1726.44 2776.51C1659.23 2826.86 1593.13 2876.5 1526.84 2925.89C1518.46 2932.13 1516.87 2938.68 1518.81 2949.05C1523.04 2971.62 1514.76 2987.95 1496.62 2998.04C1477.03 3008.93 1458.36 3007.5 1443.01 2993.92C1428.23 2980.84 1422.5 2957.96 1429.3 2939.17C1439.05 2912.26 1466.73 2902.27 1494.25 2917C1503.97 2922.2 1511.29 2923.34 1520.44 2916.4C1583.35 2868.66 1646.5 2821.25 1708.05 2770.54C1695.47 2776.5 1682.92 2782.54 1670.3 2788.42C1581.29 2829.92 1492.17 2871.2 1404.9 2916.34C1395.43 2921.24 1388.23 2924.78 1390.64 2939.17C1397.56 2980.58 1371.42 3018.73 1330.61 3030.39C1293.21 3041.07 1254.69 3022.74 1238.2 2986.43C1221.66 2950.01 1233.29 2907.79 1265.99 2885.49C1299.93 2862.35 1344.52 2867.88 1372.64 2898.78C1376.49 2903.01 1380.06 2907.49 1385.04 2913.36C1498.7 2856.6 1612.1 2799.95 1726.02 2743.05C1721.18 2736.07 1716.83 2739.61 1713.08 2740.63C1635.12 2761.82 1557.19 2783.14 1479.26 2804.42C1463.15 2808.82 1451.17 2814.56 1448.96 2835.45C1446.25 2860.95 1414.22 2877.49 1389.54 2869.75C1363.47 2861.58 1348.98 2831.76 1358.55 2805.99C1368.5 2779.19 1395.39 2767.58 1421.03 2779.03C1422.79 2779.81 1425.08 2780.26 1426.14 2781.63C1444.31 2805.26 1466.37 2797.32 1489.3 2790.82C1560.78 2770.53 1632.52 2751.18 1703.97 2729.95C1658.7 2733.25 1613.41 2736.18 1568.18 2739.94C1499.21 2745.66 1430.34 2752.63 1361.32 2757.48C1345.1 2758.62 1337.66 2763.31 1333.45 2779.33C1324.45 2813.65 1291.77 2837.94 1256.78 2838.99C1223.73 2839.98 1192.09 2817.85 1179.66 2785.05C1164.89 2746.11 1182.94 2703.49 1221.98 2685.13C1259.6 2667.43 1308.94 2681.7 1325.48 2720.68C1335.93 2745.29 1349.54 2747.39 1371.63 2745.79C1451.59 2739.98 1531.28 2731.91 1610.83 2722.07C1645.69 2717.76 1680.65 2714.26 1715.56 2710.39C1715.61 2708.79 1715.67 2707.19 1715.72 2705.59C1694.33 2702.58 1673.01 2698.69 1651.53 2696.72C1589.63 2691.05 1527.67 2686.17 1465.73 2680.95C1451.12 2679.72 1439.31 2680.52 1431.16 2697.23C1421.68 2716.69 1397.11 2724.1 1378 2717.54C1357.15 2710.4 1342.18 2687.93 1344.01 2666.55C1345.71 2646.8 1363.25 2626.74 1382.18 2622.88C1402.94 2618.66 1427.13 2629.26 1434.16 2650.07C1439.62 2666.24 1448.46 2669.28 1463.37 2670.42C1543.1 2676.53 1622.75 2683.7 1702.71 2688.97C1588.46 2655.11 1474.2 2621.24 1357.52 2586.66C1346.59 2606.08 1329.74 2621.92 1306.03 2629.62C1266.31 2642.54 1222.83 2622.28 1206.36 2582.65C1190.05 2543.4 1206.18 2499.46 1243.78 2480.73C1282.28 2461.54 1328.12 2474.57 1349.63 2511.05C1358.97 2526.9 1364.43 2543.97 1362.49 2562.66C1361.68 2570.45 1362.15 2575.61 1371.46 2578.58C1485.84 2615.05 1602.21 2644.2 1718.3 2674.38C1721.26 2675.15 1724.55 2676.18 1727.51 2673.49C1726.73 2667.93 1721.67 2667.19 1717.88 2665.34C1646.91 2630.68 1575.81 2596.3 1504.97 2561.36C1492.52 2555.22 1482.98 2553.24 1470.12 2562.76C1450.12 2577.57 1427.25 2574.54 1410.06 2558.76C1393.99 2544 1389.95 2521.78 1399.82 2502.4C1409.01 2484.33 1430.54 2472.54 1449.07 2475.41C1471.93 2478.95 1489.74 2496.76 1490.04 2522.08C1490.24 2538.64 1497.05 2545.54 1510.41 2551.96C1578.09 2584.54 1645.39 2617.92 1712.89 2650.88C1718.98 2653.86 1725.54 2655.86 1733.74 2655.01C1706.7 2633.77 1679.82 2612.32 1652.59 2591.33C1585.91 2539.93 1518.85 2489.03 1452.54 2437.17C1442.49 2429.31 1437.14 2433.85 1429.23 2438.83C1391.44 2462.67 1343.52 2454.99 1318.68 2420.78C1298.91 2393.53 1294.56 2363.98 1311.25 2333.65C1326.91 2305.19 1352.12 2290.49 1384.17 2292.09C1417.57 2293.77 1441.95 2311.64 1456.27 2342.2C1466.73 2364.54 1466.68 2387.29 1455.59 2409.36C1451.07 2418.36 1451.54 2423.54 1460.32 2430.05C1545.44 2493.25 1630.14 2557 1715.06 2620.47C1719.45 2623.76 1723.1 2628.81 1732.91 2628.69C1709.05 2601.75 1686.79 2576.5 1664.41 2551.35C1636.19 2519.64 1607.69 2488.18 1579.74 2456.24C1571.51 2446.84 1564.19 2441.61 1550.2 2445.54C1528.35 2451.67 1506.23 2438.64 1497.07 2417.48C1488.22 2397.02 1493.3 2374.4 1509.67 2361.4C1527.71 2347.06 1554.06 2347.26 1572.04 2361.87C1588.16 2374.97 1594.73 2400.94 1583.78 2419.74C1576.33 2432.5 1579.01 2439.92 1588.02 2449.81C1637.37 2504.03 1686.16 2558.77 1735.03 2613.43C1742.55 2621.83 1749.51 2630.74 1759.11 2637.18C1747.43 2601.85 1728.38 2571.45 1710.51 2540.45C1668.73 2467.96 1626.61 2395.67 1584.92 2323.13C1579.23 2313.22 1574.41 2307.87 1560.93 2311.67C1519.4 2323.4 1479.85 2303.96 1464.21 2266.15C1448.43 2227.99 1461.05 2185.09 1494.19 2164.24C1527.65 2143.2 1572.41 2149.81 1597.3 2179.48C1624.71 2212.16 1624.28 2259.13 1596.25 2291.15C1593.32 2294.5 1590.28 2297.75 1586.66 2301.75C1643.34 2402.88 1701.58 2502.7 1766.95 2598.93C1760.93 2580.68 1755.2 2562.33 1748.83 2544.21C1730.69 2492.59 1712.17 2441.11 1694.09 2389.47C1689.46 2376.24 1682.96 2368.13 1667.13 2366.79C1644.88 2364.91 1630.87 2347.85 1627.38 2323.6C1624.57 2304.1 1635.28 2285.16 1654.91 2274.91C1672.89 2265.52 1695.46 2270.06 1711.02 2286.2C1724.76 2300.46 1731.31 2326.61 1717.34 2341.13C1693.96 2365.4 1704.48 2387.06 1713.26 2411.2C1736.36 2474.75 1758.78 2538.55 1781.66 2602.18C1783.27 2606.67 1783.46 2612.44 1790.53 2615.29C1793.19 2590.87 1786.63 2567.89 1784.57 2544.61C1776.22 2450.29 1758.14 2357.37 1745.05 2263.73C1743.39 2251.85 1739.54 2247.44 1727.91 2245.67C1697.76 2241.09 1673.57 2227.16 1660.48 2197.65C1642.8 2157.8 1659.77 2109.91 1698.62 2090.95C1739.32 2071.1 1784.37 2085.08 1804.37 2123.79C1825.35 2164.41 1811.48 2215.92 1772.14 2235.64C1757.08 2243.19 1753.4 2248.97 1756.58 2266.82C1769.09 2337.13 1778.37 2408.02 1789.15 2478.65C1791.64 2495.01 1795.29 2511.19 1798.8 2529.54C1811.77 2522.34 1815.56 2511.62 1816.69 2500.35C1818.11 2486.28 1816.55 2471.86 1818.5 2457.91C1820.09 2446.47 1810.01 2449.56 1804.24 2444.18C1825.79 2423.66 1823.16 2396.66 1824.81 2370.67C1825.74 2355.91 1821.46 2345.47 1807.55 2337.37C1788.58 2326.32 1780.97 2305.41 1785.36 2286.08C1790.34 2264.2 1802.77 2252.08 1824 2248.43C1851.99 2243.61 1879.51 2268.14 1880.35 2298.46C1880.47 2302.7 1877.08 2307.08 1881.58 2312.33C1898.67 2299.33 1917.94 2288.73 1922.22 2264.32C1939.01 2282.57 1946.72 2260.83 1959.41 2257.57C1900.98 2257.42 1866.87 2229.15 1861.53 2171.5C1858.19 2135.41 1884.92 2102.29 1921.37 2090.86C1952.71 2081.02 1991.13 2095.03 2009.41 2122.96C2033.84 2160.27 2027.87 2195.69 1988.45 2243.59C2004.16 2241.98 2015.59 2234.68 2024.46 2223.25C2052.57 2187.01 2087.49 2171.7 2132.73 2186.65C2142.76 2189.96 2151.45 2185.58 2160.16 2181.03C2275.47 2120.83 2364.45 2033.11 2430.12 1920.91C2433.76 1914.69 2435.35 1905.92 2445.8 1905.03C2451.59 1913.46 2444.88 1919.46 2441.53 1925.55C2380.1 2037.36 2293.6 2123.97 2182.27 2185.68C2159.78 2198.16 2160.02 2198.54 2171.69 2221.73C2177.84 2233.95 2183.1 2246.83 2181.69 2260.58C2179.67 2280.36 2190.36 2282.03 2205.02 2279.04C2241.45 2271.61 2278.27 2265.56 2314.15 2256C2383.77 2237.46 2451.08 2212.47 2513.31 2175.24C2522.57 2169.7 2532.69 2165.26 2539.72 2156.4C2538.82 2146.95 2530.04 2144.79 2525 2139.47C2502.26 2115.47 2490.75 2088.29 2501.05 2055.03C2511.48 2021.35 2540.02 1997.93 2576.96 1996.25C2609.23 1994.79 2635.56 2008.18 2652.61 2036.99C2666.33 2060.18 2666.79 2060.73 2685.86 2041.03C2768.4 1955.76 2829.53 1856.72 2872.01 1745.93C2881.12 1722.17 2880.6 1721.97 2890.27 1712.59C2896.86 1721.04 2891.38 1728.87 2888.98 1735.91C2846.92 1859.28 2780.76 1967.7 2688.38 2059.57C2675.39 2072.47 2665.42 2085.91 2659.95 2104.16C2649.86 2137.81 2616.37 2160.68 2580.39 2160.35C2570.06 2160.26 2561.78 2162.92 2553.45 2168.27C2453.5 2232.47 2344.81 2272.41 2226.91 2286.82C2214.85 2288.29 2203.02 2291.62 2190.98 2293.22C2181.24 2294.51 2174.96 2299.27 2169.47 2307.37C2142.47 2347.19 2108.06 2357.34 2064.44 2339.09C2060.96 2337.63 2057.35 2336.48 2052.75 2334.8C2043.86 2349.82 2033.57 2363.36 2026.58 2381.45C2049.52 2383.99 2068.23 2373.94 2087.99 2371.3C2107.06 2368.76 2126.03 2366.22 2145.25 2364.71C2169.06 2362.83 2192.6 2362.54 2214.47 2347.07C2243.11 2326.81 2274.49 2331.26 2302.76 2350.96C2314.57 2359.19 2326.59 2361.78 2340.54 2361.91C2468.58 2363.14 2594.19 2348.17 2714.85 2303.23C2847.19 2253.95 2962.15 2178.73 3053.17 2068.9C3057.83 2063.28 3061.51 2055.26 3072.04 2057.23C3077.49 2067.14 3068.71 2072.43 3064.14 2078.28C3006.6 2151.85 2934.61 2208.11 2854.59 2254.9C2751.54 2315.16 2639.82 2349.53 2522.38 2364.76C2467.84 2371.84 2412.6 2374.24 2357.45 2375.08C2332.52 2375.46 2332.52 2375.71 2335.44 2399.42C2340.42 2439.9 2325.04 2471.91 2292.49 2488.77C2259.09 2506.07 2226.13 2500.02 2195.84 2471.08C2194.07 2469.38 2192.03 2467.96 2190.92 2467.06C2097.25 2530.27 2004.41 2592.93 1911.58 2655.58C1927.86 2657.76 1940.84 2650.55 1954.03 2645.12C2006.26 2623.62 2057.95 2600.8 2110.29 2579.61C2126.25 2573.15 2134.22 2564.61 2136.23 2546.51C2138.96 2521.99 2158.58 2505.05 2181.02 2502.6C2199.32 2500.61 2222.51 2515.08 2230.07 2533.21C2239.42 2555.64 2233.88 2578.02 2214.98 2594.1C2197.59 2608.9 2171.95 2608.07 2151.55 2590.82C2144.07 2584.5 2138.13 2580.61 2127.87 2584.95C2055.72 2615.41 1983.36 2645.35 1911.1 2675.52C1908.92 2676.43 1905.87 2676.71 1905.75 2681.84C1952.51 2672.94 1999.07 2664.72 2045.34 2655.1C2113.05 2641.01 2180.48 2625.53 2248.22 2611.56C2261.96 2608.72 2266.19 2603.6 2267.37 2589.1C2270.28 2553.29 2289.23 2527.49 2323.99 2516.02C2357.46 2504.97 2387.16 2514.37 2409.45 2540.23C2432.42 2566.88 2435.02 2598.78 2420.84 2630.91C2407.36 2661.48 2380.31 2674.29 2349.59 2675.73C2319.73 2677.14 2293.81 2663.89 2279.1 2636.77C2270.57 2621.04 2262.21 2619.53 2245.84 2623.39C2166.61 2642.06 2086.95 2658.93 2007.49 2676.61C1975.18 2683.8 1942.97 2691.41 1911.06 2701.11C1944.56 2701.11 1978.08 2701.93 2011.54 2700.92C2058.98 2699.48 2106.36 2696.05 2153.79 2694.82C2170.07 2694.4 2180.67 2691.12 2187.9 2674.36C2196.48 2654.52 2217.13 2645.66 2235.33 2649.41C2259.36 2654.36 2273.23 2668.23 2277.35 2691.41C2280.91 2711.45 2271.1 2731.88 2253.04 2742.03C2230.18 2754.87 2200.68 2746.81 2186.92 2721.78C2180.22 2709.59 2172.16 2706.33 2159.37 2706.26C2086.87 2705.85 2014.87 2715.74 1942 2718.5C1982.68 2725.76 2023.25 2733.63 2064.05 2740.15C2129.89 2750.68 2195.92 2759.97 2261.74 2770.61C2275.98 2772.91 2282.12 2766.96 2288.85 2755.69C2314.25 2713.11 2366.24 2702.04 2407.45 2729.4C2444.54 2754.01 2453.56 2807.21 2426.2 2845.92C2407.27 2872.69 2379.63 2882.1 2348.33 2877.31C2316.76 2872.49 2290.12 2854.66 2285.13 2822.95C2279.64 2788.1 2261.88 2782.55 2231.66 2778.71C2184.7 2772.75 2138.05 2763.19 2091.04 2756.69C2035.81 2749.05 1980.49 2742.04 1925.19 2734.91C1921.67 2734.46 1917.74 2732.94 1912.39 2737.59C1934.43 2745.53 1955.1 2753.46 1976.09 2760.46C2034.52 2779.92 2093.27 2798.44 2151.45 2818.63C2165.32 2823.44 2170.99 2815.98 2179.26 2808.7C2193.04 2796.57 2208.64 2790.58 2227.07 2799.03C2247.22 2808.27 2258.07 2823.78 2258.26 2845.89C2258.43 2865.72 2248.96 2880.45 2231.29 2889.31C2205.67 2902.16 2172.62 2886.88 2165.35 2855.79C2160.91 2836.77 2150.34 2829.82 2134.04 2824.5C2063.28 2801.39 1992.77 2777.51 1922.12 2754.04C1918.09 2752.7 1914.16 2749.42 1907.2 2753.11C1933.57 2768.29 1958.71 2782.93 1984.01 2797.29C2059.42 2840.07 2134.98 2882.58 2210.22 2925.66C2221.23 2931.96 2228.19 2931.55 2238.38 2922.61C2271.05 2893.95 2314.63 2894.17 2347.54 2921.14C2376.39 2944.77 2384.22 2988.65 2365.73 3023.08C2347.46 3057.09 2305.42 3073.19 2270.13 3059.67C2229.94 3044.27 2206.46 3003.82 2216.67 2964.33C2220.34 2950.14 2218.65 2942.36 2205.15 2935.14C2111.71 2885.18 2018.65 2834.5 1925.44 2784.09C1921.6 2782.02 1917.55 2780.32 1911.95 2780.78C1939.75 2803.79 1967.54 2826.82 1995.36 2849.82C2026.08 2875.21 2057.12 2900.22 2087.4 2926.12C2098.74 2935.82 2108.43 2939.38 2123.5 2932.66C2143.46 2923.76 2168.37 2933.85 2179.06 2951.66C2191.27 2972 2188.75 2995.8 2172.66 3012.13C2155.82 3029.2 2134.35 3032.36 2114.82 3020.64C2097.61 3010.31 2086.45 2987.49 2092.29 2967.38C2096.56 2952.67 2091.73 2945.03 2081.06 2936.42C2023.03 2889.62 1965.5 2842.2 1907.71 2795.1C1902.36 2790.73 1896.39 2787.13 1889.45 2782.31C1890.71 2790.77 1895.6 2795.1 1899.46 2799.78C1969.12 2884.05 2039.05 2968.09 2108.52 3052.53C2117.73 3063.72 2125.9 3065.74 2139.72 3060.01C2174.53 3045.57 2217.96 3061.35 2237.05 3093.37C2257.49 3127.64 2252.11 3169.8 2223.98 3195.9C2195.38 3222.42 2152.64 3223.45 2119.67 3198.41C2088.26 3174.55 2078.24 3133.31 2095.31 3098.15C2109.46 3069.02 2108.59 3069.78 2086.48 3044.48C2022.99 2971.86 1960.26 2898.55 1897.25 2825.51C1894.39 2822.2 1891.6 2818.83 1885.38 2817.58C1894.54 2833.27 1903.7 2848.96 1912.85 2864.66C1941.71 2914.15 1970.73 2963.54 1999.31 3013.2C2005.13 3023.31 2010.24 3029.62 2024.34 3028.19C2046.06 3025.99 2064.62 3041.37 2070.26 3061.72C2076.77 3085.25 2069.78 3105.15 2050.73 3117.3C2031.65 3129.46 2008.59 3127.66 1991.92 3112.7C1975.38 3097.85 1968.72 3073.42 1982.34 3055.14C1996.26 3036.45 1990.51 3023.18 1980.91 3006.92C1944.6 2945.39 1908.9 2883.5 1872.88 2821.8C1870.75 2818.16 1869.85 2813.06 1861.29 2811.98C1870 2839.22 1877.97 2865.3 1886.67 2891.13C1914.02 2972.27 1942.03 3053.19 1968.77 3134.53C1973.26 3148.18 1980.95 3147.82 1991.94 3147.79C2032.96 3147.69 2066.24 3176.08 2073.38 3216.19C2080.19 3254.44 2060 3290.76 2024.1 3304.86C1987.79 3319.12 1946.05 3305.51 1926.6 3273.08C1904.68 3236.54 1910.47 3192.18 1943.9 3167.27C1959.81 3155.43 1960.87 3145.19 1954.83 3128.48C1923.53 3041.91 1893.06 2955.03 1862.2 2868.28C1860.54 2863.61 1858.05 2859.25 1854.09 2850.76C1847.16 2873.89 1852.87 2892.71 1855.36 2910.95C1861.71 2957.48 1870.18 3003.72 1877.41 3050.14C1879.32 3062.42 1882.82 3070.79 1896.71 3075.18C1918.93 3082.22 1931.48 3103.64 1929.22 3124.35C1926.48 3149.43 1910.28 3166.4 1884.83 3170.83C1866.6 3174 1846.63 3163 1837.47 3144.74C1827.3 3124.46 1831.39 3097.33 1850.4 3083.51C1864.68 3073.14 1867.61 3062.69 1864.77 3046.12C1858.02 3006.82 1853.33 2967.15 1847.6 2927.67C1847.08 2924.08 1845.08 2920.71 1842.48 2913.81C1832.64 2939.23 1828.83 2961.96 1830.76 2985.83C1832.65 3009.28 1844.79 3029.87 1853.61 3056.51C1832.55 3046.5 1828.96 3029.35 1819.4 3017.18C1813.1 3020.98 1815.01 3026.78 1814.69 3031.42C1812.25 3067.39 1810.71 3103.44 1807.68 3139.36C1806.29 3155.81 1811.02 3164.68 1827.19 3171.3C1860.25 3184.85 1876.87 3212.68 1876.55 3247.52C1876.24 3280.52 1860.73 3307.15 1829.42 3321.45C1785.11 3341.69 1736.67 3319.98 1718.64 3272.38C1702.32 3229.28 1726.9 3179.46 1773.5 3167.75C1793.83 3162.65 1797.71 3153.38 1798.13 3134.77C1799.45 3076.85 1806.57 3018.94 1801.59 2961.05C1798.84 2929.17 1791.92 2897.65 1793.04 2865.15C1779.78 2919.71 1771.77 2975.31 1752.29 3028.32C1748.19 3005.86 1756.12 2984.89 1759.95 2963.48C1764.01 2940.84 1768.09 2918.2 1767.72 2894.31C1758.98 2920.85 1749.53 2947.18 1741.64 2973.98C1724.34 3032.7 1710.68 3092.23 1703.49 3153.19C1694.56 3228.93 1693.57 3304.67 1699.35 3380.71C1707.53 3488.39 1727.51 3593.77 1757.95 3697.2C1779.99 3772.1 1808.11 3844.68 1842.65 3914.71C1846.64 3922.79 1850.52 3930.93 1854.38 3939.08C1857.64 3945.96 1859.58 3952.67 1850.78 3957.13C1842.18 3961.48 1837.1 3956.09 1833.55 3949.74C1825.71 3935.7 1818.59 3921.25 1810.56 3905.65ZM2123.93 2460.89C2107.43 2482.32 2090.84 2490.35 2069.36 2481.78C2054.71 2475.93 2046.61 2480.99 2037.49 2490.11C1991.58 2536.02 1945.67 2581.93 1899.45 2627.51C1892.77 2634.1 1884.37 2638.93 1876.77 2644.57C1886.51 2651.53 1890.14 2648.45 1893.71 2646.27C1985.68 2589.87 2075.54 2530.23 2164.77 2469.57C2179.29 2459.7 2187.12 2450.4 2179.32 2432.14C2174.45 2420.76 2176.19 2408.03 2178.69 2395.88C2180.61 2386.58 2177.51 2379.58 2167.57 2380.06C2149.45 2380.92 2130.88 2380.73 2112.04 2389.6C2128.98 2411.29 2139.05 2432.87 2123.93 2460.89ZM1881.53 2608.77C1877.92 2615.1 1874.31 2621.43 1868.13 2632.24C1875.53 2628.5 1878.05 2627.78 1879.86 2626.23C1934.99 2579.02 1984.42 2525.92 2035.31 2474.33C2039.05 2470.53 2042.53 2465.93 2040.91 2460.67C2035.04 2441.72 2037.74 2423.05 2045.09 2400.82C2023.51 2406.91 2004.8 2407.39 1993.59 2425.78C1956.82 2486.07 1919.82 2546.21 1881.53 2608.77ZM1962.3 2411.61C2009 2403.16 2018.44 2358.88 2044.09 2330.38C2038.13 2324.04 2033.8 2325.46 2029.47 2326.81C1995.23 2337.54 1961.08 2348.53 1929.09 2365.22C1902.95 2378.86 1886.56 2414.54 1893.09 2446.77C1915.55 2435.33 1937.62 2424.08 1962.3 2411.61ZM1891.87 2561.91C1920.38 2517.5 1948.89 2473.1 1978.97 2426.24C1955.57 2430.88 1901.61 2459.82 1886.67 2475.03C1873.09 2488.86 1874.88 2508.37 1869.59 2525.26C1866.15 2536.26 1863.95 2547.66 1861.34 2558.92C1856.46 2579.96 1851.7 2601.04 1846.89 2622.1C1848.05 2622.39 1849.21 2622.69 1850.38 2622.98C1863.7 2603.4 1877.02 2583.81 1891.87 2561.91ZM1937.2 2343.57C1965.57 2332.01 1993.95 2320.45 2023.07 2308.58C2019.07 2293.52 2015.18 2279.36 2011.58 2265.12C2009.22 2255.81 2003.88 2254.14 1995.8 2258.11C1979.69 2266.01 1963.12 2273.1 1947.51 2281.88C1921.06 2296.77 1910.53 2320.61 1915.39 2352.98C1921.99 2350.18 1928.33 2347.49 1937.2 2343.57ZM1838.04 2351.28C1833.36 2368.61 1834.42 2386.02 1835.54 2405.94C1873.02 2382.64 1910.36 2363.07 1906.28 2309.18C1898.12 2317.04 1891.3 2324.27 1883.8 2330.69C1873.85 2339.19 1866.84 2356.29 1848.67 2343.31C1846.21 2341.55 1841.83 2345.69 1838.04 2351.28ZM1854.26 2477.32C1880.61 2455.6 1874.95 2422.2 1889.43 2392.2C1834.63 2414.28 1823.02 2436.07 1831.32 2496.19C1838.74 2490.02 1845.4 2484.48 1854.26 2477.32ZM1824.85 2573.99C1824.85 2588.97 1824.85 2603.96 1824.85 2618.94C1826.13 2619.12 1827.42 2619.3 1828.7 2619.49C1839.06 2579.59 1849.42 2539.7 1860.3 2497.78C1855.57 2499.33 1853.72 2499.7 1852.09 2500.51C1821.68 2515.58 1825.17 2543.96 1824.85 2573.99ZM1811.98 2570.77C1812.01 2560.81 1816.6 2550.24 1806.15 2536.82C1798.78 2559.21 1805.57 2576.61 1810.29 2594.17C1810.73 2587.41 1811.17 2580.64 1811.98 2570.77Z" fill="white"/>
<ellipse cx="2338.58" cy="2020.3" rx="61.2657" ry="61.5402" fill="white"/>
<ellipse cx="2767.43" cy="2266.49" rx="61.2657" ry="61.5402" fill="white"/>
<path d="M8802.93 3905.65C8871.87 3758.59 8914.17 3605.19 8933.77 3445.68C8957.21 3254.83 8940.6 3067.83 8874.01 2886.43C8871.68 2880.07 8867.14 2873.74 8871.86 2863.27C8902.16 2897.74 8940.08 2924.91 8938.99 2975.16C8950.2 2976.25 8948.2 2965.41 8956.84 2965.35C8970.7 2980.79 8981.16 3000.03 8993.44 3017.91C8998.67 3025.53 8992.9 3031.05 8989.7 3037.22C8973.42 3068.65 8990.91 3105.13 9024.38 3109.8C9052.1 3113.68 9075.85 3094.45 9077.46 3066.83C9079.18 3037.19 9055.62 3010.23 9027.35 3013.82C9009.83 3016.05 9002.42 3008.37 8992.66 2996.85C8959.78 2958.02 8943.34 2912.12 8931.4 2858.61C8940.63 2867.55 8947.29 2873.71 8953.62 2880.19C9005.76 2933.54 9057.66 2987.14 9110.13 3040.17C9119.12 3049.25 9119.01 3055.65 9112.6 3066.52C9087.54 3108.99 9103.09 3158.72 9147.17 3180.95C9187.76 3201.42 9237.4 3183.4 9255.24 3141.72C9274.58 3096.54 9252.73 3045.61 9206.75 3029.89C9185.63 3022.66 9164.7 3024.83 9145.55 3036.31C9135.08 3042.58 9127.62 3042.3 9118.62 3033.28C9038.13 2952.68 8963.6 2866.61 8888.16 2781.36C8887.52 2780.63 8887.64 2779.22 8887.05 2776.51C8954.26 2826.86 9020.36 2876.5 9086.65 2925.89C9095.03 2932.13 9096.62 2938.68 9094.68 2949.05C9090.45 2971.62 9098.73 2987.95 9116.87 2998.04C9136.46 3008.93 9155.13 3007.5 9170.48 2993.92C9185.26 2980.84 9190.99 2957.96 9184.18 2939.17C9174.44 2912.26 9146.76 2902.27 9119.24 2917C9109.52 2922.2 9102.2 2923.34 9093.05 2916.4C9030.14 2868.66 8966.99 2821.25 8905.44 2770.54C8918.02 2776.5 8930.57 2782.54 8943.19 2788.42C9032.2 2829.92 9121.32 2871.2 9208.59 2916.34C9218.06 2921.24 9225.26 2924.78 9222.85 2939.17C9215.93 2980.58 9242.07 3018.73 9282.88 3030.39C9320.28 3041.07 9358.8 3022.74 9375.29 2986.43C9391.83 2950.01 9380.2 2907.79 9347.5 2885.49C9313.56 2862.35 9268.97 2867.88 9240.85 2898.78C9237 2903.01 9233.43 2907.49 9228.44 2913.36C9114.79 2856.6 9001.39 2799.95 8887.47 2743.05C8892.31 2736.07 8896.66 2739.61 8900.41 2740.63C8978.37 2761.82 9056.3 2783.14 9134.23 2804.42C9150.34 2808.82 9162.32 2814.56 9164.53 2835.45C9167.24 2860.95 9199.26 2877.49 9223.95 2869.75C9250.02 2861.58 9264.51 2831.76 9254.94 2805.99C9244.99 2779.19 9218.1 2767.58 9192.46 2779.03C9190.7 2779.81 9188.41 2780.26 9187.35 2781.63C9169.18 2805.26 9147.12 2797.32 9124.19 2790.82C9052.71 2770.53 8980.97 2751.18 8909.52 2729.95C8954.79 2733.25 9000.08 2736.18 9045.31 2739.94C9114.28 2745.66 9183.15 2752.63 9252.17 2757.48C9268.39 2758.62 9275.83 2763.31 9280.04 2779.33C9289.04 2813.65 9321.72 2837.94 9356.71 2838.99C9389.76 2839.98 9421.4 2817.85 9433.83 2785.05C9448.6 2746.11 9430.55 2703.49 9391.51 2685.13C9353.89 2667.43 9304.55 2681.7 9288.01 2720.68C9277.56 2745.29 9263.95 2747.39 9241.86 2745.79C9161.9 2739.98 9082.21 2731.91 9002.65 2722.07C8967.8 2717.76 8932.84 2714.26 8897.93 2710.39C8897.88 2708.79 8897.82 2707.19 8897.77 2705.59C8919.16 2702.58 8940.47 2698.69 8961.96 2696.72C9023.86 2691.05 9085.82 2686.17 9147.76 2680.95C9162.37 2679.72 9174.18 2680.52 9182.33 2697.23C9191.81 2716.69 9216.38 2724.1 9235.49 2717.54C9256.34 2710.4 9271.31 2687.93 9269.48 2666.55C9267.78 2646.8 9250.24 2626.74 9231.31 2622.88C9210.55 2618.66 9186.36 2629.26 9179.33 2650.07C9173.87 2666.24 9165.03 2669.28 9150.12 2670.42C9070.39 2676.53 8990.74 2683.7 8910.78 2688.97C9025.03 2655.11 9139.29 2621.24 9255.97 2586.66C9266.9 2606.08 9283.75 2621.92 9307.46 2629.62C9347.18 2642.54 9390.66 2622.28 9407.13 2582.65C9423.44 2543.4 9407.31 2499.46 9369.71 2480.73C9331.21 2461.54 9285.37 2474.57 9263.86 2511.05C9254.52 2526.9 9249.06 2543.97 9251 2562.66C9251.81 2570.45 9251.34 2575.61 9242.03 2578.58C9127.65 2615.05 9011.28 2644.2 8895.19 2674.38C8892.23 2675.15 8888.94 2676.18 8885.98 2673.49C8886.76 2667.93 8891.82 2667.19 8895.61 2665.34C8966.58 2630.68 9037.68 2596.3 9108.52 2561.36C9120.97 2555.22 9130.51 2553.24 9143.37 2562.76C9163.37 2577.57 9186.24 2574.54 9203.43 2558.76C9219.5 2544 9223.54 2521.78 9213.67 2502.4C9204.48 2484.33 9182.95 2472.54 9164.42 2475.41C9141.56 2478.95 9123.75 2496.76 9123.45 2522.08C9123.25 2538.64 9116.44 2545.54 9103.08 2551.96C9035.4 2584.54 8968.1 2617.92 8900.6 2650.88C8894.51 2653.86 8887.95 2655.86 8879.75 2655.01C8906.79 2633.77 8933.67 2612.32 8960.9 2591.33C9027.58 2539.93 9094.64 2489.03 9160.95 2437.17C9171 2429.31 9176.35 2433.85 9184.26 2438.83C9222.05 2462.67 9269.97 2454.99 9294.81 2420.78C9314.58 2393.53 9318.93 2363.98 9302.23 2333.65C9286.58 2305.19 9261.37 2290.49 9229.32 2292.09C9195.92 2293.77 9171.54 2311.64 9157.22 2342.2C9146.76 2364.54 9146.81 2387.29 9157.9 2409.36C9162.42 2418.36 9161.95 2423.54 9153.17 2430.05C9068.05 2493.25 8983.35 2557 8898.43 2620.47C8894.04 2623.76 8890.39 2628.81 8880.58 2628.69C8904.44 2601.75 8926.7 2576.5 8949.08 2551.35C8977.3 2519.64 9005.8 2488.18 9033.75 2456.24C9041.98 2446.84 9049.3 2441.61 9063.29 2445.54C9085.14 2451.67 9107.26 2438.64 9116.42 2417.48C9125.27 2397.02 9120.19 2374.4 9103.82 2361.4C9085.78 2347.06 9059.42 2347.26 9041.45 2361.87C9025.33 2374.97 9018.76 2400.94 9029.71 2419.74C9037.16 2432.5 9034.48 2439.92 9025.47 2449.81C8976.12 2504.03 8927.33 2558.77 8878.46 2613.43C8870.94 2621.83 8863.98 2630.74 8854.38 2637.18C8866.06 2601.85 8885.11 2571.45 8902.98 2540.45C8944.76 2467.96 8986.88 2395.67 9028.57 2323.13C9034.26 2313.22 9039.08 2307.87 9052.56 2311.67C9094.09 2323.4 9133.64 2303.96 9149.28 2266.15C9165.06 2227.99 9152.44 2185.09 9119.3 2164.24C9085.84 2143.2 9041.08 2149.81 9016.19 2179.48C8988.78 2212.16 8989.21 2259.13 9017.24 2291.15C9020.17 2294.5 9023.21 2297.75 9026.83 2301.75C8970.15 2402.88 8911.91 2502.7 8846.54 2598.93C8852.56 2580.68 8858.29 2562.33 8864.66 2544.21C8882.8 2492.59 8901.32 2441.11 8919.4 2389.47C8924.03 2376.24 8930.53 2368.13 8946.36 2366.79C8968.61 2364.91 8982.62 2347.85 8986.11 2323.6C8988.92 2304.1 8978.21 2285.16 8958.58 2274.91C8940.6 2265.52 8918.03 2270.06 8902.47 2286.2C8888.73 2300.46 8882.18 2326.61 8896.15 2341.13C8919.53 2365.4 8909.01 2387.06 8900.23 2411.2C8877.13 2474.75 8854.71 2538.55 8831.83 2602.18C8830.22 2606.67 8830.03 2612.44 8822.96 2615.29C8820.3 2590.87 8826.86 2567.89 8828.92 2544.61C8837.27 2450.29 8855.35 2357.37 8868.44 2263.73C8870.1 2251.85 8873.95 2247.44 8885.57 2245.67C8915.73 2241.09 8939.92 2227.16 8953.01 2197.65C8970.69 2157.8 8953.72 2109.91 8914.87 2090.95C8874.17 2071.1 8829.12 2085.08 8809.12 2123.79C8788.14 2164.41 8802.01 2215.92 8841.35 2235.64C8856.41 2243.19 8860.09 2248.97 8856.91 2266.82C8844.4 2337.13 8835.12 2408.02 8824.34 2478.65C8821.85 2495.01 8818.2 2511.19 8814.69 2529.54C8801.72 2522.34 8797.93 2511.62 8796.8 2500.35C8795.38 2486.28 8796.94 2471.86 8794.99 2457.91C8793.4 2446.47 8803.48 2449.56 8809.25 2444.18C8787.7 2423.66 8790.33 2396.66 8788.68 2370.67C8787.75 2355.91 8792.03 2345.47 8805.94 2337.37C8824.91 2326.32 8832.52 2305.41 8828.13 2286.08C8823.15 2264.2 8810.72 2252.08 8789.49 2248.43C8761.5 2243.61 8733.98 2268.14 8733.14 2298.46C8733.02 2302.7 8736.41 2307.08 8731.91 2312.33C8714.82 2299.33 8695.55 2288.73 8691.27 2264.32C8674.48 2282.57 8666.77 2260.83 8654.08 2257.57C8712.51 2257.42 8746.62 2229.15 8751.96 2171.5C8755.3 2135.41 8728.57 2102.29 8692.12 2090.86C8660.78 2081.02 8622.36 2095.03 8604.08 2122.96C8579.65 2160.27 8585.62 2195.69 8625.04 2243.59C8609.33 2241.98 8597.9 2234.68 8589.03 2223.25C8560.92 2187.01 8526 2171.7 8480.76 2186.65C8470.73 2189.96 8462.04 2185.58 8453.33 2181.03C8338.02 2120.83 8249.04 2033.11 8183.37 1920.91C8179.73 1914.69 8178.14 1905.92 8167.69 1905.03C8161.9 1913.46 8168.61 1919.46 8171.96 1925.55C8233.39 2037.36 8319.89 2123.97 8431.22 2185.68C8453.71 2198.16 8453.47 2198.54 8441.8 2221.73C8435.65 2233.95 8430.39 2246.83 8431.8 2260.58C8433.82 2280.36 8423.13 2282.03 8408.47 2279.04C8372.04 2271.61 8335.22 2265.56 8299.34 2256C8229.72 2237.46 8162.41 2212.47 8100.18 2175.24C8090.92 2169.7 8080.8 2165.26 8073.76 2156.4C8074.67 2146.95 8083.45 2144.79 8088.49 2139.47C8111.23 2115.47 8122.74 2088.29 8112.44 2055.03C8102.01 2021.35 8073.47 1997.93 8036.53 1996.25C8004.26 1994.79 7977.93 2008.18 7960.88 2036.99C7947.16 2060.18 7946.7 2060.73 7927.63 2041.03C7845.09 1955.76 7783.96 1856.72 7741.48 1745.93C7732.37 1722.17 7732.89 1721.97 7723.22 1712.59C7716.63 1721.04 7722.11 1728.87 7724.51 1735.91C7766.57 1859.28 7832.73 1967.7 7925.11 2059.57C7938.1 2072.47 7948.07 2085.91 7953.54 2104.16C7963.63 2137.81 7997.12 2160.68 8033.1 2160.35C8043.43 2160.26 8051.71 2162.92 8060.04 2168.27C8159.99 2232.47 8268.68 2272.41 8386.58 2286.82C8398.64 2288.29 8410.47 2291.62 8422.51 2293.22C8432.25 2294.51 8438.53 2299.27 8444.02 2307.37C8471.02 2347.19 8505.43 2357.34 8549.05 2339.09C8552.53 2337.63 8556.14 2336.48 8560.74 2334.8C8569.63 2349.82 8579.92 2363.36 8586.91 2381.45C8563.97 2383.99 8545.26 2373.94 8525.5 2371.3C8506.43 2368.76 8487.46 2366.22 8468.24 2364.71C8444.43 2362.83 8420.89 2362.54 8399.02 2347.07C8370.38 2326.81 8339 2331.26 8310.73 2350.96C8298.92 2359.19 8286.9 2361.78 8272.94 2361.91C8144.91 2363.14 8019.3 2348.17 7898.64 2303.23C7766.3 2253.95 7651.34 2178.73 7560.32 2068.9C7555.66 2063.28 7551.98 2055.26 7541.45 2057.23C7536 2067.14 7544.78 2072.43 7549.35 2078.28C7606.89 2151.85 7678.88 2208.11 7758.9 2254.9C7861.95 2315.16 7973.67 2349.53 8091.11 2364.76C8145.65 2371.84 8200.89 2374.24 8256.04 2375.08C8280.97 2375.46 8280.97 2375.71 8278.05 2399.42C8273.07 2439.9 8288.45 2471.91 8321 2488.77C8354.4 2506.07 8387.36 2500.02 8417.65 2471.08C8419.42 2469.38 8421.46 2467.96 8422.57 2467.06C8516.24 2530.27 8609.07 2592.93 8701.91 2655.58C8685.63 2657.76 8672.65 2650.55 8659.46 2645.12C8607.23 2623.62 8555.54 2600.8 8503.2 2579.61C8487.24 2573.15 8479.27 2564.61 8477.26 2546.51C8474.53 2521.99 8454.91 2505.05 8432.47 2502.6C8414.17 2500.61 8390.98 2515.08 8383.42 2533.21C8374.07 2555.64 8379.61 2578.02 8398.51 2594.1C8415.9 2608.9 8441.54 2608.07 8461.94 2590.82C8469.42 2584.5 8475.36 2580.61 8485.62 2584.95C8557.77 2615.41 8630.13 2645.35 8702.39 2675.52C8704.57 2676.43 8707.62 2676.71 8707.74 2681.84C8660.98 2672.94 8614.42 2664.72 8568.15 2655.1C8500.44 2641.01 8433.01 2625.53 8365.27 2611.56C8351.53 2608.72 8347.3 2603.6 8346.12 2589.1C8343.21 2553.29 8324.26 2527.49 8289.5 2516.02C8256.03 2504.97 8226.33 2514.37 8204.04 2540.23C8181.07 2566.88 8178.47 2598.78 8192.65 2630.91C8206.13 2661.48 8233.18 2674.29 8263.9 2675.73C8293.76 2677.14 8319.68 2663.89 8334.39 2636.77C8342.92 2621.04 8351.28 2619.53 8367.65 2623.39C8446.88 2642.06 8526.54 2658.93 8606 2676.61C8638.31 2683.8 8670.52 2691.41 8702.43 2701.11C8668.93 2701.11 8635.41 2701.93 8601.95 2700.92C8554.51 2699.48 8507.13 2696.05 8459.69 2694.82C8443.42 2694.4 8432.82 2691.12 8425.59 2674.36C8417.01 2654.52 8396.36 2645.66 8378.16 2649.41C8354.13 2654.36 8340.26 2668.23 8336.14 2691.41C8332.57 2711.45 8342.39 2731.88 8360.45 2742.03C8383.31 2754.87 8412.81 2746.81 8426.57 2721.78C8433.27 2709.59 8441.33 2706.33 8454.12 2706.26C8526.62 2705.85 8598.62 2715.74 8671.49 2718.5C8630.81 2725.76 8590.24 2733.63 8549.44 2740.15C8483.6 2750.68 8417.57 2759.97 8351.75 2770.61C8337.51 2772.91 8331.37 2766.96 8324.64 2755.69C8299.23 2713.11 8247.25 2702.04 8206.04 2729.4C8168.95 2754.01 8159.93 2807.21 8187.29 2845.92C8206.22 2872.69 8233.86 2882.1 8265.16 2877.31C8296.73 2872.49 8323.37 2854.66 8328.36 2822.95C8333.84 2788.1 8351.61 2782.55 8381.83 2778.71C8428.79 2772.75 8475.44 2763.19 8522.45 2756.69C8577.68 2749.05 8633 2742.04 8688.3 2734.91C8691.82 2734.46 8695.75 2732.94 8701.1 2737.59C8679.06 2745.53 8658.39 2753.46 8637.4 2760.46C8578.97 2779.92 8520.22 2798.44 8462.04 2818.63C8448.17 2823.44 8442.5 2815.98 8434.23 2808.7C8420.45 2796.57 8404.85 2790.58 8386.42 2799.03C8366.27 2808.27 8355.42 2823.78 8355.23 2845.89C8355.06 2865.72 8364.53 2880.45 8382.2 2889.31C8407.82 2902.16 8440.87 2886.88 8448.14 2855.79C8452.58 2836.77 8463.15 2829.82 8479.45 2824.5C8550.21 2801.39 8620.72 2777.51 8691.37 2754.04C8695.4 2752.7 8699.33 2749.42 8706.29 2753.11C8679.92 2768.29 8654.78 2782.93 8629.48 2797.29C8554.07 2840.07 8478.51 2882.58 8403.27 2925.66C8392.26 2931.96 8385.3 2931.55 8375.11 2922.61C8342.44 2893.95 8298.86 2894.17 8265.95 2921.14C8237.1 2944.77 8229.27 2988.65 8247.76 3023.08C8266.03 3057.09 8308.07 3073.19 8343.36 3059.67C8383.55 3044.27 8407.03 3003.82 8396.82 2964.33C8393.15 2950.14 8394.84 2942.36 8408.34 2935.14C8501.78 2885.18 8594.84 2834.5 8688.05 2784.09C8691.89 2782.02 8695.94 2780.32 8701.54 2780.78C8673.74 2803.79 8645.95 2826.82 8618.13 2849.82C8587.41 2875.21 8556.37 2900.22 8526.09 2926.12C8514.75 2935.82 8505.06 2939.38 8489.99 2932.66C8470.03 2923.76 8445.12 2933.85 8434.43 2951.66C8422.22 2972 8424.74 2995.8 8440.83 3012.13C8457.67 3029.2 8479.14 3032.36 8498.67 3020.64C8515.88 3010.31 8527.04 2987.49 8521.2 2967.38C8516.93 2952.67 8521.76 2945.03 8532.43 2936.42C8590.46 2889.62 8647.99 2842.2 8705.78 2795.1C8711.13 2790.73 8717.1 2787.13 8724.04 2782.31C8722.78 2790.77 8717.89 2795.1 8714.03 2799.78C8644.37 2884.05 8574.44 2968.09 8504.97 3052.53C8495.76 3063.72 8487.59 3065.74 8473.77 3060.01C8438.96 3045.57 8395.53 3061.35 8376.44 3093.37C8356 3127.64 8361.38 3169.8 8389.51 3195.9C8418.11 3222.42 8460.85 3223.45 8493.82 3198.41C8525.23 3174.55 8535.25 3133.31 8518.18 3098.15C8504.03 3069.02 8504.9 3069.78 8527.01 3044.48C8590.5 2971.86 8653.23 2898.55 8716.24 2825.51C8719.1 2822.2 8721.89 2818.83 8728.11 2817.58C8718.95 2833.27 8709.79 2848.96 8700.64 2864.66C8671.78 2914.15 8642.76 2963.54 8614.18 3013.2C8608.36 3023.31 8603.25 3029.62 8589.15 3028.19C8567.43 3025.99 8548.87 3041.37 8543.23 3061.72C8536.72 3085.25 8543.71 3105.15 8562.76 3117.3C8581.84 3129.46 8604.9 3127.66 8621.57 3112.7C8638.11 3097.85 8644.77 3073.42 8631.15 3055.14C8617.23 3036.45 8622.98 3023.18 8632.58 3006.92C8668.89 2945.39 8704.59 2883.5 8740.61 2821.8C8742.74 2818.16 8743.64 2813.06 8752.2 2811.98C8743.49 2839.22 8735.52 2865.3 8726.82 2891.13C8699.47 2972.27 8671.46 3053.19 8644.72 3134.53C8640.23 3148.18 8632.54 3147.82 8621.55 3147.79C8580.53 3147.69 8547.25 3176.08 8540.11 3216.19C8533.3 3254.44 8553.49 3290.76 8589.39 3304.86C8625.7 3319.12 8667.44 3305.51 8686.89 3273.08C8708.81 3236.54 8703.02 3192.18 8669.59 3167.27C8653.68 3155.43 8652.62 3145.19 8658.66 3128.48C8689.96 3041.91 8720.43 2955.03 8751.29 2868.28C8752.95 2863.61 8755.44 2859.25 8759.4 2850.76C8766.32 2873.89 8760.62 2892.71 8758.13 2910.95C8751.78 2957.48 8743.31 3003.72 8736.08 3050.14C8734.17 3062.42 8730.67 3070.79 8716.78 3075.18C8694.56 3082.22 8682.01 3103.64 8684.27 3124.35C8687.01 3149.43 8703.21 3166.4 8728.66 3170.83C8746.89 3174 8766.86 3163 8776.02 3144.74C8786.19 3124.46 8782.1 3097.33 8763.09 3083.51C8748.81 3073.14 8745.88 3062.69 8748.72 3046.12C8755.47 3006.82 8760.16 2967.15 8765.89 2927.67C8766.41 2924.08 8768.41 2920.71 8771.01 2913.81C8780.85 2939.23 8784.66 2961.96 8782.73 2985.83C8780.84 3009.28 8768.7 3029.87 8759.88 3056.51C8780.94 3046.5 8784.53 3029.35 8794.09 3017.18C8800.39 3020.98 8798.48 3026.78 8798.8 3031.42C8801.24 3067.39 8802.78 3103.44 8805.81 3139.36C8807.2 3155.81 8802.47 3164.68 8786.3 3171.3C8753.24 3184.85 8736.62 3212.68 8736.94 3247.52C8737.25 3280.52 8752.76 3307.15 8784.07 3321.45C8828.38 3341.69 8876.82 3319.98 8894.85 3272.38C8911.17 3229.28 8886.59 3179.46 8839.99 3167.75C8819.66 3162.65 8815.78 3153.38 8815.36 3134.77C8814.04 3076.85 8806.92 3018.94 8811.9 2961.05C8814.65 2929.17 8821.57 2897.65 8820.45 2865.15C8833.71 2919.71 8841.72 2975.31 8861.2 3028.32C8865.3 3005.86 8857.37 2984.89 8853.54 2963.48C8849.48 2940.84 8845.4 2918.2 8845.77 2894.31C8854.51 2920.85 8863.96 2947.18 8871.85 2973.98C8889.15 3032.7 8902.81 3092.23 8910 3153.19C8918.93 3228.93 8919.92 3304.67 8914.14 3380.71C8905.96 3488.39 8885.98 3593.77 8855.54 3697.2C8833.5 3772.1 8805.38 3844.68 8770.84 3914.71C8766.85 3922.79 8762.97 3930.93 8759.11 3939.08C8755.85 3945.96 8753.91 3952.67 8762.71 3957.13C8771.31 3961.48 8776.39 3956.09 8779.94 3949.74C8787.78 3935.7 8794.9 3921.25 8802.93 3905.65ZM8489.56 2460.89C8506.06 2482.32 8522.65 2490.35 8544.13 2481.78C8558.78 2475.93 8566.88 2480.99 8576 2490.11C8621.91 2536.02 8667.82 2581.93 8714.04 2627.51C8720.72 2634.1 8729.12 2638.93 8736.72 2644.57C8726.98 2651.53 8723.35 2648.45 8719.78 2646.27C8627.81 2589.87 8537.95 2530.23 8448.72 2469.57C8434.2 2459.7 8426.37 2450.4 8434.17 2432.14C8439.03 2420.76 8437.3 2408.03 8434.8 2395.88C8432.88 2386.58 8435.98 2379.58 8445.92 2380.06C8464.04 2380.92 8482.61 2380.73 8501.45 2389.6C8484.51 2411.29 8474.44 2432.87 8489.56 2460.89ZM8731.96 2608.77C8735.57 2615.1 8739.18 2621.43 8745.36 2632.24C8737.96 2628.5 8735.44 2627.78 8733.63 2626.23C8678.5 2579.02 8629.07 2525.92 8578.18 2474.33C8574.44 2470.53 8570.96 2465.93 8572.58 2460.67C8578.45 2441.72 8575.75 2423.05 8568.4 2400.82C8589.98 2406.91 8608.69 2407.39 8619.9 2425.78C8656.67 2486.07 8693.67 2546.21 8731.96 2608.77ZM8651.19 2411.61C8604.49 2403.16 8595.05 2358.88 8569.4 2330.38C8575.36 2324.04 8579.69 2325.46 8584.02 2326.81C8618.26 2337.54 8652.41 2348.53 8684.4 2365.22C8710.54 2378.86 8726.93 2414.54 8720.4 2446.77C8697.93 2435.33 8675.87 2424.08 8651.19 2411.61ZM8721.62 2561.91C8693.11 2517.5 8664.6 2473.1 8634.52 2426.24C8657.92 2430.88 8711.88 2459.82 8726.82 2475.03C8740.4 2488.86 8738.61 2508.37 8743.9 2525.26C8747.34 2536.26 8749.54 2547.66 8752.15 2558.92C8757.03 2579.96 8761.79 2601.04 8766.6 2622.1C8765.44 2622.39 8764.28 2622.69 8763.11 2622.98C8749.79 2603.4 8736.47 2583.81 8721.62 2561.91ZM8676.29 2343.57C8647.92 2332.01 8619.54 2320.45 8590.42 2308.58C8594.42 2293.52 8598.31 2279.36 8601.91 2265.12C8604.27 2255.81 8609.61 2254.14 8617.69 2258.11C8633.8 2266.01 8650.37 2273.1 8665.98 2281.88C8692.43 2296.77 8702.96 2320.61 8698.1 2352.98C8691.5 2350.18 8685.16 2347.49 8676.29 2343.57ZM8775.45 2351.28C8780.13 2368.61 8779.06 2386.02 8777.95 2405.94C8740.47 2382.64 8703.13 2363.07 8707.21 2309.18C8715.37 2317.04 8722.18 2324.27 8729.69 2330.69C8739.64 2339.19 8746.65 2356.29 8764.82 2343.31C8767.28 2341.55 8771.66 2345.69 8775.45 2351.28ZM8759.22 2477.32C8732.88 2455.6 8738.54 2422.2 8724.06 2392.2C8778.86 2414.28 8790.47 2436.07 8782.17 2496.19C8774.75 2490.02 8768.09 2484.48 8759.22 2477.32ZM8788.64 2573.99C8788.64 2588.97 8788.64 2603.96 8788.64 2618.94C8787.36 2619.12 8786.07 2619.3 8784.79 2619.49C8774.43 2579.59 8764.07 2539.7 8753.19 2497.78C8757.92 2499.33 8759.77 2499.7 8761.4 2500.51C8791.81 2515.58 8788.32 2543.96 8788.64 2573.99ZM8801.51 2570.77C8801.48 2560.81 8796.89 2550.24 8807.34 2536.82C8814.7 2559.21 8807.92 2576.61 8803.2 2594.17C8802.76 2587.41 8802.32 2580.64 8801.51 2570.77Z" fill="white"/>
<ellipse cx="61.2657" cy="61.5402" rx="61.2657" ry="61.5402" transform="matrix(-1 0 0 1 8336.17 1958.76)" fill="white"/>
<ellipse cx="61.2657" cy="61.5402" rx="61.2657" ry="61.5402" transform="matrix(-1 0 0 1 7907.32 2204.95)" fill="white"/>
<path d="M4641.28 2454.48L4739.11 2756.9L5055.67 2756.9L4799.57 2943.8L4897.39 3246.22L4641.28 3059.31L4385.18 3246.22L4483 2943.8L4226.9 2756.9L4543.46 2756.9L4641.28 2454.48Z" fill="white"/>
<path d="M4641.29 2473.42C4871.38 2473.42 5058.05 2660.81 5058.05 2892.14C5058.05 3123.47 4871.38 3310.86 4641.29 3310.86C4411.19 3310.86 4224.52 3123.47 4224.52 2892.14C4224.52 2660.81 4411.19 2473.42 4641.29 2473.42Z" stroke="white" stroke-width="37.8881"/>
<path d="M4925.45 2587.94L6334.5 2122.19L5013.09 2699.18L6317.6 2376.44L5073.66 2834.81L5020.17 2702.11L4925.45 2587.94Z" fill="white"/>
</svg>
